<svg width="134" height="40" viewBox="0 0 134 40" fill="none" xmlns="http://www.w3.org/2000/svg">
<path d="M97.3375 12.9255C97.3375 17.4356 94.6828 20.8325 90.5723 20.8325C88.774 20.8325 87.2326 20.0618 86.0908 18.5774V26.0562H82.123V5.304H85.7768V7.53051C86.9471 5.90345 88.6313 5.01855 90.5723 5.01855C94.6828 5.01855 97.3375 8.44395 97.3375 12.9255ZM93.2555 12.9255C93.2555 10.071 91.6285 8.52959 89.6874 8.52959C87.7464 8.52959 86.1193 10.0425 86.1193 12.9255C86.1193 15.8086 87.7464 17.2929 89.6874 17.2929C91.6285 17.2929 93.2555 15.8371 93.2555 12.9255Z" fill="#2F2F2F"/>
<path d="M72.2147 20.8039C67.6476 20.8039 64.5933 17.6354 64.5933 12.8684C64.5933 8.32977 67.7617 5.01855 72.1577 5.01855C76.9817 5.01855 80.1788 8.92922 79.4651 13.896H68.6466C68.9035 16.3795 70.1024 17.7496 72.1291 17.7496C73.8703 17.7496 75.0407 16.8933 75.4974 15.3804H79.4366C78.5803 18.8343 75.9256 20.8039 72.2147 20.8039ZM72.072 7.93014C70.2166 7.93014 69.0463 9.12903 68.7037 11.3841H75.2691C75.1549 9.27176 73.956 7.93014 72.072 7.93014Z" fill="#2F2F2F"/>
<path d="M55.9633 20.8039C51.3961 20.8039 48.3418 17.6354 48.3418 12.8684C48.3418 8.32977 51.5103 5.01855 55.9062 5.01855C60.7303 5.01855 63.9273 8.92922 63.2137 13.896H52.3952C52.6521 16.3795 53.851 17.7496 55.8776 17.7496C57.6189 17.7496 58.7892 16.8933 59.2459 15.3804H63.1851C62.3288 18.8343 59.6741 20.8039 55.9633 20.8039ZM55.8206 7.93014C53.9651 7.93014 52.7948 9.12903 52.4523 11.3841H59.0176C58.9034 9.27176 57.7045 7.93014 55.8206 7.93014Z" fill="#2F2F2F"/>
<path d="M30.585 12.9255C30.585 8.41544 33.2396 5.01858 37.3501 5.01858C39.177 5.01858 40.7184 5.81784 41.8602 7.27364V0.0517578H45.7994V20.5471H42.1742V18.3491C40.9753 19.9476 39.3197 20.8325 37.3501 20.8325C33.2396 20.8325 30.585 17.3786 30.585 12.9255ZM34.6669 12.9255C34.6669 15.78 36.2939 17.2929 38.235 17.2929C40.2046 17.2929 41.8316 15.7515 41.8316 12.8685C41.8316 9.98541 40.176 8.52962 38.235 8.52962C36.2939 8.52962 34.6669 10.014 34.6669 12.9255Z" fill="#2F2F2F"/>
<path d="M72.2094 39.9714C67.6422 39.9714 64.5879 36.8029 64.5879 32.0359C64.5879 27.4973 67.7564 24.186 72.1523 24.186C76.9764 24.186 80.1734 28.0967 79.4598 33.0635H68.6413C68.8982 35.5469 70.0971 36.9171 72.1237 36.9171C73.865 36.9171 75.0353 36.0607 75.492 34.5479H79.4312C78.5749 38.0018 75.9202 39.9714 72.2094 39.9714ZM72.0667 27.0976C70.2112 27.0976 69.0409 28.2965 68.6984 30.5516H75.2637C75.1495 28.4392 73.9506 27.0976 72.0667 27.0976Z" fill="#2F2F2F"/>
<path d="M62.878 34.8333C62.878 38.0303 60.4516 40 56.1128 40C51.774 40 49.3477 37.9162 49.0337 34.5193H52.8302C52.8587 36.0893 54.2003 37.0884 56.1699 37.0884C57.7113 37.0884 58.8817 36.6031 58.8817 35.5184C58.8817 34.5479 58.2537 34.1482 56.7979 33.8628L54.0576 33.349C51.3173 32.8637 49.6617 31.3508 49.6617 28.9816C49.6617 26.1556 52.088 24.186 55.8845 24.186C59.7095 24.186 62.3356 26.2127 62.6211 29.4954H58.8246C58.6819 28.0111 57.5686 27.0976 55.8845 27.0976C54.4287 27.0976 53.4582 27.64 53.4582 28.6105C53.4582 29.5239 54.0861 29.895 55.4563 30.1519L58.3964 30.6943C61.3651 31.2652 62.878 32.6353 62.878 34.8333Z" fill="#2F2F2F"/>
<path d="M37.0512 31.4079V39.7145H33.0835V24.4715H36.7372V26.6409C37.8505 25.128 39.4205 24.186 41.4186 24.186C44.4729 24.186 46.5852 26.1842 46.5852 29.8665V39.7145H42.646V31.2081C42.646 28.953 41.7611 27.6971 39.9628 27.6971C38.3928 27.6971 37.0512 28.953 37.0512 31.4079Z" fill="#2F2F2F"/>
<path d="M23.1757 39.9714C18.6085 39.9714 15.5542 36.8029 15.5542 32.0359C15.5542 27.4973 18.7227 24.186 23.1186 24.186C27.9427 24.186 31.1397 28.0967 30.4261 33.0635H19.6076C19.8645 35.5469 21.0634 36.9171 23.09 36.9171C24.8313 36.9171 26.0016 36.0607 26.4583 34.5479H30.3975C29.5412 38.0018 26.8865 39.9714 23.1757 39.9714ZM23.033 27.0976C21.1775 27.0976 20.0072 28.2965 19.6647 30.5516H26.23C26.1158 28.4392 24.9169 27.0976 23.033 27.0976Z" fill="#2F2F2F"/>
<path d="M13.8443 34.8333C13.8443 38.0303 11.418 40 7.07913 40C2.74031 40 0.313994 37.9162 0 34.5193H3.79647C3.82501 36.0893 5.16662 37.0884 7.13622 37.0884C8.67765 37.0884 9.84799 36.6031 9.84799 35.5184C9.84799 34.5479 9.22 34.1482 7.76421 33.8628L5.0239 33.349C2.28359 32.8637 0.627988 31.3508 0.627988 28.9816C0.627988 26.1556 3.0543 24.186 6.85077 24.186C10.6758 24.186 13.3019 26.2127 13.5874 29.4954H9.7909C9.64817 28.0111 8.53492 27.0976 6.85077 27.0976C5.39498 27.0976 4.42446 27.64 4.42446 28.6105C4.42446 29.5239 5.05244 29.895 6.4226 30.1519L9.36272 30.6943C12.3314 31.2652 13.8443 32.6353 13.8443 34.8333Z" fill="#2F2F2F"/>
<path d="M21.9035 9.07377H20.1692V5.31911H16.4238V3.71785H20.1692V0H21.9035V3.71785H25.6488V5.31911H21.9035V9.07377Z" fill="#2F2F2F"/>
<circle cx="121" cy="20" r="13" fill="black"/>
<path d="M125 17C125.552 17 126 16.5523 126 16C126 15.4477 125.552 15 125 15C124.448 15 124 15.4477 124 16C124 16.5523 124.448 17 125 17Z" fill="#DADADA"/>
<path d="M124.333 12.5C126.633 12.5 128.5 14.3667 128.5 16.6667V23.3333C128.5 25.6333 126.633 27.5 124.333 27.5H117.667C115.367 27.5 113.5 25.6333 113.5 23.3333V16.6667C113.5 14.3667 115.367 12.5 117.667 12.5H121H124.333Z" stroke="#DADADA" stroke-width="2" stroke-linecap="round" stroke-linejoin="round"/>
<path d="M121 16.6665C122.842 16.6665 124.333 18.1582 124.333 19.9998C124.333 21.8415 122.842 23.3332 121 23.3332C119.158 23.3332 117.667 21.8415 117.667 19.9998C117.667 18.1582 119.158 16.6665 121 16.6665Z" stroke="#DADADA" stroke-width="2" stroke-linecap="round" stroke-linejoin="round"/>
</svg>
