<svg width="150" height="110" viewBox="0 0 150 110" fill="none" xmlns="http://www.w3.org/2000/svg">
<path d="M0 1.02574V72.8278H36.0422V36.9268L0 1.02574Z" fill="#F5F5F5"/>
<path d="M73.1141 0L36.0422 36.9268H72.117V72.8278H36.0422L73.1141 109.755L108.126 74.8793V34.8753L73.1141 0Z" fill="#F5F5F5"/>
<path d="M2.83188 0L36.0422 33.0802L69.2524 0H2.83188Z" fill="#F5F5F5"/>
<path d="M113.275 109.755V38.4654H149.317V109.755H113.275Z" fill="#F5F5F5"/>
<path fill-rule="evenodd" clip-rule="evenodd" d="M69.2524 109.755L36.0421 76.6744L5.66376 106.934L2.83188 109.755H69.2524Z" fill="#F5F5F5"/>
<path d="M149.319 17.867C149.319 27.7347 141.319 35.7341 131.452 35.7341C121.584 35.7341 113.584 27.7347 113.584 17.867C113.584 7.99934 121.584 0 131.452 0C141.319 0 149.319 7.99934 149.319 17.867Z" fill="#F5F5F5"/>
</svg>
