<svg width="44" height="40" viewBox="0 0 44 40" fill="none" xmlns="http://www.w3.org/2000/svg">
<path d="M0 0.298735V21.2102H10.4368V10.7545L0 0.298735Z" fill="#212531"/>
<path d="M21.1717 0L10.4368 10.7545H20.883V21.2102H10.4368L21.1717 31.9647L31.3103 21.8077V10.157L21.1717 0Z" fill="#212531"/>
<path d="M0.820032 0L10.4368 9.63421L20.0535 0H0.820032Z" fill="#212531"/>
<path d="M32.8013 31.9647V11.2026H43.238V31.9647H32.8013Z" fill="#212531"/>
<path fill-rule="evenodd" clip-rule="evenodd" d="M20.0535 31.9647L10.4368 22.3396L1.64006 31.1431L0.820031 31.9647H20.0535Z" fill="#212531"/>
<path d="M43.238 5.18856C43.238 8.05412 40.915 10.3771 38.0494 10.3771C35.1838 10.3771 32.8608 8.05412 32.8608 5.18856C32.8608 2.323 35.1838 0 38.0494 0C40.915 0 43.238 2.323 43.238 5.18856Z" fill="#212531"/>
<path d="M40.5381 39.9234V35.9927H41.595V36.6785H41.6359C41.7076 36.4346 41.8279 36.2503 41.9968 36.1258C42.1657 35.9995 42.3601 35.9364 42.5802 35.9364C42.6348 35.9364 42.6937 35.9398 42.7568 35.9466C42.8199 35.9535 42.8754 35.9628 42.9231 35.9748V36.9421C42.872 36.9268 42.8012 36.9131 42.7107 36.9012C42.6203 36.8892 42.5376 36.8832 42.4625 36.8832C42.3021 36.8832 42.1588 36.9182 42.0326 36.9882C41.908 37.0564 41.8091 37.152 41.7357 37.2748C41.6641 37.3976 41.6283 37.5392 41.6283 37.6996V39.9234H40.5381Z" fill="#212531"/>
<path d="M38.0218 40C37.6175 40 37.2694 39.9181 36.9777 39.7543C36.6877 39.5888 36.4642 39.3551 36.3072 39.0531C36.1503 38.7495 36.0718 38.3903 36.0718 37.9758C36.0718 37.5714 36.1503 37.2166 36.3072 36.9112C36.4642 36.6058 36.6851 36.3678 36.97 36.1972C37.2566 36.0266 37.5927 35.9413 37.9783 35.9413C38.2376 35.9413 38.479 35.9831 38.7025 36.0667C38.9277 36.1486 39.1239 36.2723 39.2911 36.4378C39.46 36.6033 39.5913 36.8114 39.6852 37.0622C39.779 37.3113 39.8259 37.603 39.8259 37.9374V38.2368H36.5068V37.5612H38.7997C38.7997 37.4043 38.7656 37.2652 38.6974 37.1441C38.6291 37.023 38.5345 36.9283 38.4133 36.86C38.2939 36.7901 38.1549 36.7551 37.9962 36.7551C37.8307 36.7551 37.684 36.7935 37.556 36.8703C37.4298 36.9453 37.3308 37.0468 37.2592 37.1748C37.1875 37.301 37.1509 37.4418 37.1491 37.597V38.2394C37.1491 38.4339 37.185 38.6019 37.2566 38.7435C37.33 38.8851 37.4332 38.9943 37.5663 39.0711C37.6993 39.1478 37.8572 39.1862 38.0397 39.1862C38.1608 39.1862 38.2717 39.1692 38.3724 39.135C38.473 39.1009 38.5592 39.0497 38.6308 38.9815C38.7025 38.9133 38.7571 38.8297 38.7946 38.7307L39.8029 38.7972C39.7517 39.0395 39.6468 39.251 39.4881 39.4319C39.3312 39.611 39.1282 39.7509 38.8791 39.8516C38.6317 39.9505 38.3459 40 38.0218 40Z" fill="#212531"/>
<path d="M33.1865 38.7925L33.1891 37.4848H33.3478L34.6068 35.9929H35.8582L34.1667 37.9685H33.9082L33.1865 38.7925ZM32.1987 39.9236V34.6826H33.2889V39.9236H32.1987ZM34.6554 39.9236L33.4987 38.2116L34.2255 37.4413L35.9324 39.9236H34.6554Z" fill="#212531"/>
<path d="M29.25 39.9234V35.9927H30.3069V36.6785H30.3478C30.4195 36.4346 30.5398 36.2503 30.7087 36.1258C30.8776 35.9995 31.0721 35.9364 31.2921 35.9364C31.3467 35.9364 31.4056 35.9398 31.4687 35.9466C31.5318 35.9535 31.5873 35.9628 31.635 35.9748V36.9421C31.5839 36.9268 31.5131 36.9131 31.4226 36.9012C31.3322 36.8892 31.2495 36.8832 31.1744 36.8832C31.0141 36.8832 30.8707 36.9182 30.7445 36.9882C30.62 37.0564 30.521 37.152 30.4476 37.2748C30.376 37.3976 30.3402 37.5392 30.3402 37.6996V39.9234H29.25Z" fill="#212531"/>
<path d="M26.7342 40C26.3299 40 25.9818 39.9181 25.6901 39.7543C25.4001 39.5888 25.1766 39.3551 25.0196 39.0531C24.8627 38.7495 24.7842 38.3903 24.7842 37.9758C24.7842 37.5714 24.8627 37.2166 25.0196 36.9112C25.1766 36.6058 25.3975 36.3678 25.6824 36.1972C25.969 36.0266 26.3051 35.9413 26.6907 35.9413C26.95 35.9413 27.1914 35.9831 27.4149 36.0667C27.6401 36.1486 27.8363 36.2723 28.0035 36.4378C28.1724 36.6033 28.3037 36.8114 28.3976 37.0622C28.4914 37.3113 28.5383 37.603 28.5383 37.9374V38.2368H25.2192V37.5612H27.5121C27.5121 37.4043 27.478 37.2652 27.4098 37.1441C27.3415 37.023 27.2469 36.9283 27.1257 36.86C27.0063 36.7901 26.8673 36.7551 26.7086 36.7551C26.5431 36.7551 26.3964 36.7935 26.2684 36.8703C26.1422 36.9453 26.0432 37.0468 25.9716 37.1748C25.8999 37.301 25.8633 37.4418 25.8615 37.597V38.2394C25.8615 38.4339 25.8974 38.6019 25.969 38.7435C26.0424 38.8851 26.1456 38.9943 26.2787 39.0711C26.4117 39.1478 26.5696 39.1862 26.7521 39.1862C26.8732 39.1862 26.9841 39.1692 27.0848 39.135C27.1854 39.1009 27.2716 39.0497 27.3432 38.9815C27.4149 38.9133 27.4695 38.8297 27.507 38.7307L28.5153 38.7972C28.4641 39.0395 28.3592 39.251 28.2005 39.4319C28.0436 39.611 27.8406 39.7509 27.5915 39.8516C27.3441 39.9505 27.0583 40 26.7342 40Z" fill="#212531"/>
<path d="M19.6869 39.9233L18.6172 35.9926H19.7201L20.3292 38.6335H20.365L20.9997 35.9926H22.0822L22.727 38.6182H22.7603L23.3591 35.9926H24.4595L23.3924 39.9233H22.2383L21.5627 37.4512H21.5141L20.8385 39.9233H19.6869Z" fill="#212531"/>
<path d="M15.7789 39.9876C15.4803 39.9876 15.2099 39.9108 14.9676 39.7572C14.7271 39.602 14.536 39.3742 14.3944 39.074C14.2545 38.772 14.1846 38.4018 14.1846 37.9633C14.1846 37.5129 14.2571 37.1385 14.4021 36.8399C14.5471 36.5396 14.7399 36.3153 14.9804 36.1669C15.2227 36.0167 15.488 35.9417 15.7763 35.9417C15.9964 35.9417 16.1798 35.9792 16.3265 36.0543C16.4749 36.1276 16.5944 36.2198 16.6848 36.3306C16.7769 36.4398 16.8469 36.5473 16.8946 36.6531H16.9279V34.6826H18.0155V39.9236H16.9407V39.294H16.8946C16.8434 39.4032 16.7709 39.5116 16.6771 39.619C16.585 39.7248 16.4647 39.8127 16.3163 39.8826C16.1696 39.9526 15.9904 39.9876 15.7789 39.9876ZM16.1243 39.12C16.3001 39.12 16.4485 39.0723 16.5696 38.9767C16.6925 38.8795 16.7863 38.7438 16.8511 38.5698C16.9177 38.3958 16.9509 38.1919 16.9509 37.9582C16.9509 37.7245 16.9185 37.5215 16.8537 37.3492C16.7888 37.1768 16.695 37.0438 16.5722 36.9499C16.4493 36.8561 16.3001 36.8092 16.1243 36.8092C15.9452 36.8092 15.7942 36.8578 15.6714 36.9551C15.5486 37.0523 15.4556 37.1871 15.3925 37.3594C15.3293 37.5317 15.2978 37.7313 15.2978 37.9582C15.2978 38.1868 15.3293 38.389 15.3925 38.5647C15.4573 38.7387 15.5503 38.8752 15.6714 38.9742C15.7942 39.0714 15.9452 39.12 16.1243 39.12Z" fill="#212531"/>
<path d="M10.9373 37.6508V39.9232H9.84717V35.9925H10.8861V36.686H10.9322C11.0192 36.4574 11.1651 36.2766 11.3698 36.1435C11.5745 36.0087 11.8228 35.9413 12.1145 35.9413C12.3875 35.9413 12.6255 36.001 12.8285 36.1205C13.0315 36.2399 13.1893 36.4105 13.3019 36.6323C13.4145 36.8523 13.4708 37.1151 13.4708 37.4205V39.9232H12.3806V37.615C12.3824 37.3744 12.3209 37.1867 12.1964 37.052C12.0719 36.9155 11.9004 36.8472 11.682 36.8472C11.5353 36.8472 11.4056 36.8788 11.293 36.9419C11.1821 37.005 11.0951 37.0972 11.032 37.2183C10.9706 37.3377 10.939 37.4819 10.9373 37.6508Z" fill="#212531"/>
<path d="M6.78803 39.9974C6.53725 39.9974 6.31375 39.9539 6.11756 39.8669C5.92136 39.7782 5.76611 39.6477 5.65181 39.4754C5.53921 39.3014 5.48291 39.0847 5.48291 38.8254C5.48291 38.607 5.523 38.4236 5.60319 38.2752C5.68337 38.1268 5.79256 38.0073 5.93075 37.9169C6.06894 37.8265 6.22589 37.7583 6.40162 37.7122C6.57904 37.6661 6.765 37.6337 6.95949 37.615C7.1881 37.5911 7.37235 37.5689 7.51225 37.5484C7.65215 37.5262 7.75366 37.4938 7.81678 37.4512C7.8799 37.4085 7.91146 37.3454 7.91146 37.2618V37.2464C7.91146 37.0844 7.86028 36.959 7.75792 36.8703C7.65726 36.7815 7.51396 36.7372 7.328 36.7372C7.1318 36.7372 6.9757 36.7807 6.85969 36.8677C6.74368 36.953 6.66691 37.0605 6.62937 37.1901L5.6211 37.1083C5.67228 36.8694 5.77294 36.663 5.92307 36.489C6.0732 36.3132 6.26684 36.1785 6.50398 36.0846C6.74282 35.9891 7.0192 35.9413 7.33312 35.9413C7.55149 35.9413 7.76048 35.9669 7.96009 36.0181C8.1614 36.0693 8.33968 36.1486 8.49493 36.2561C8.65189 36.3636 8.77558 36.5018 8.866 36.6707C8.95642 36.8378 9.00163 37.0383 9.00163 37.272V39.9232H7.96776V39.3781H7.93706C7.87393 39.501 7.78948 39.6093 7.68371 39.7032C7.57793 39.7953 7.45083 39.8678 7.30241 39.9207C7.15398 39.9719 6.98252 39.9974 6.78803 39.9974ZM7.10024 39.2451C7.26061 39.2451 7.40221 39.2135 7.52505 39.1504C7.64788 39.0856 7.74427 38.9986 7.81422 38.8894C7.88417 38.7802 7.91914 38.6565 7.91914 38.5183V38.1012C7.88502 38.1234 7.8381 38.1438 7.77839 38.1626C7.72039 38.1797 7.65471 38.1959 7.58135 38.2112C7.50799 38.2249 7.43463 38.2377 7.36127 38.2496C7.28791 38.2598 7.22137 38.2692 7.16166 38.2778C7.0337 38.2965 6.92196 38.3264 6.82642 38.3673C6.73088 38.4083 6.65667 38.4637 6.60378 38.5337C6.55089 38.6019 6.52445 38.6872 6.52445 38.7896C6.52445 38.938 6.57819 39.0514 6.68567 39.1299C6.79486 39.2067 6.93305 39.2451 7.10024 39.2451Z" fill="#212531"/>
<path d="M0.311035 39.9236V34.6826H1.41911V36.845H3.66853V34.6826H4.77405V39.9236H3.66853V37.7586H1.41911V39.9236H0.311035Z" fill="#212531"/>
</svg>
